<svg width="18" height="18" viewBox="0 0 18 18" fill="none" xmlns="http://www.w3.org/2000/svg">
<g clip-path="url(#clip0_17026_860)">
<path d="M2 0.5H16C16.3978 0.5 16.7792 0.658149 17.0605 0.939453C17.3419 1.22076 17.5 1.60218 17.5 2V16C17.5 16.3978 17.3419 16.7792 17.0605 17.0605C16.7792 17.3419 16.3978 17.5 16 17.5H2C1.60218 17.5 1.22076 17.3419 0.939453 17.0605C0.658149 16.7792 0.5 16.3978 0.5 16V2C0.5 1.60218 0.658149 1.22076 0.939453 0.939453C1.22076 0.658149 1.60218 0.5 2 0.5ZM13.2432 4.58789C12.8952 4.58785 12.5599 4.70927 12.293 4.92773L12.1826 5.02734L7.58594 9.62402L5.81836 7.85645C5.67915 7.71719 5.51392 7.60667 5.33203 7.53125C5.15005 7.4558 4.95481 7.41706 4.75781 7.41699C4.36014 7.41691 3.97863 7.57445 3.69727 7.85547C3.41593 8.1366 3.2571 8.5183 3.25684 8.91602C3.25671 9.26411 3.3781 9.60017 3.59668 9.86719L3.69629 9.97754L6.4541 12.7354C6.60266 12.884 6.7795 13.0016 6.97363 13.082C7.16778 13.1625 7.37578 13.2041 7.58594 13.2041C7.7961 13.2041 8.00408 13.1625 8.19824 13.082C8.39241 13.0016 8.56919 12.884 8.71777 12.7354L14.3037 7.14941C14.585 6.8682 14.743 6.48662 14.7432 6.08887C14.7433 5.69105 14.5849 5.30972 14.3037 5.02832C14.0225 4.74695 13.641 4.58803 13.2432 4.58789Z" fill="black" stroke="black"/>
</g>
<defs>
<clipPath id="clip0_17026_860">
<rect width="18" height="18" fill="white"/>
</clipPath>
</defs>
</svg>
