<svg width="31" height="31" viewBox="0 0 31 31" fill="none" xmlns="http://www.w3.org/2000/svg">
<path d="M8.2915 24.3334V22.875C8.2915 20.9412 9.05973 19.0865 10.4272 17.7191C11.7946 16.3516 13.6493 15.5834 15.5832 15.5834C17.517 15.5834 19.3717 16.3516 20.7392 17.7191C22.1066 19.0865 22.8748 20.9412 22.8748 22.875V24.3334" stroke="#828483" stroke-width="1.5" stroke-linecap="round"/>
<path d="M15.5835 15.5834C16.7438 15.5834 17.8566 15.1224 18.6771 14.302C19.4976 13.4815 19.9585 12.3687 19.9585 11.2084C19.9585 10.0481 19.4976 8.93525 18.6771 8.11478C17.8566 7.29431 16.7438 6.83337 15.5835 6.83337C14.4232 6.83337 13.3104 7.29431 12.4899 8.11478C11.6694 8.93525 11.2085 10.0481 11.2085 11.2084C11.2085 12.3687 11.6694 13.4815 12.4899 14.302C13.3104 15.1224 14.4232 15.5834 15.5835 15.5834Z" stroke="#828483" stroke-width="1.5" stroke-linecap="round" stroke-linejoin="round"/>
<path d="M15.5833 30.1667C23.6375 30.1667 30.1667 23.6375 30.1667 15.5833C30.1667 7.52918 23.6375 1 15.5833 1C7.52918 1 1 7.52918 1 15.5833C1 23.6375 7.52918 30.1667 15.5833 30.1667Z" stroke="#828483" stroke-width="1.5"/>
</svg>
